<svg width="100" height="100" viewBox="0 0 100 100" fill="none" xmlns="http://www.w3.org/2000/svg">
<rect width="100" height="100" fill="#EBEBEB"/>
<rect x="7.19995" y="7.2" width="85.6" height="85.6" fill="white"/>
<rect x="18" y="42" width="31.4904" height="7.56935" rx="3.78467" fill="#FF6B6B"/>
<rect x="51.4772" y="42" width="31.4904" height="7.56935" rx="3.78467" fill="#51CF66"/>
<rect x="18" y="51" width="31.4904" height="7.56935" rx="3.78467" fill="#FEE25D"/>
<rect x="51.5096" y="51" width="31.4904" height="7.56935" rx="3.78467" fill="#4DABF7"/>
<path d="M48.9317 53.7617C48.9317 52.668 49.0645 51.7969 49.3302 51.1484C49.5958 50.5 50.0802 49.8633 50.7833 49.2383C51.4942 48.6055 51.9669 48.0938 52.2013 47.7031C52.4356 47.3047 52.5528 46.8867 52.5528 46.4492C52.5528 45.1289 51.9434 44.4688 50.7247 44.4688C50.1466 44.4688 49.6817 44.6484 49.3302 45.0078C48.9864 45.3594 48.8067 45.8477 48.7911 46.4727H45.3927C45.4083 44.9805 45.8888 43.8125 46.8341 42.9688C47.7872 42.125 49.0841 41.7031 50.7247 41.7031C52.3809 41.7031 53.6661 42.1055 54.5802 42.9102C55.4942 43.707 55.9513 44.8359 55.9513 46.2969C55.9513 46.9609 55.8028 47.5898 55.5059 48.1836C55.2091 48.7695 54.6895 49.4219 53.9474 50.1406L52.9981 51.043C52.4044 51.6133 52.0645 52.2812 51.9786 53.0469L51.9317 53.7617H48.9317ZM48.5919 57.3594C48.5919 56.8359 48.7677 56.4062 49.1192 56.0703C49.4786 55.7266 49.9356 55.5547 50.4903 55.5547C51.045 55.5547 51.4981 55.7266 51.8497 56.0703C52.2091 56.4062 52.3888 56.8359 52.3888 57.3594C52.3888 57.875 52.213 58.3008 51.8614 58.6367C51.5177 58.9727 51.0606 59.1406 50.4903 59.1406C49.92 59.1406 49.4591 58.9727 49.1075 58.6367C48.7638 58.3008 48.5919 57.875 48.5919 57.3594Z" fill="#495057"/>
</svg>
